<?xml version="1.0" ?><!-- Uploaded to: SVG Repo, www.svgrepo.com, Generator: SVG Repo Mixer Tools -->
<svg width="800px" height="800px" viewBox="0 0 32 32" id="Layer_1" version="1.1" xml:space="preserve" xmlns="http://www.w3.org/2000/svg" xmlns:xlink="http://www.w3.org/1999/xlink"><style type="text/css">
	.st0{fill:#00BBB4;}
	.st1{fill:#1B75BC;}
	.st2{fill:#F15A29;}
</style><path class="st2" d="M17,3L3,17l12,12l14-14V3H17z M12.0029907,13.5515747c0.5862427-0.5861816,1.5366211-0.5861816,2.1228027,0  c0.5861816,0.5862427,0.5861816,1.5366211,0,2.1228027s-1.5365601,0.5861816-2.1228027,0  C11.4168091,15.0881958,11.4168091,14.1378174,12.0029907,13.5515747z M13.6401367,19.7739258  c-0.1953125,0.1953125-0.4511719,0.2929688-0.7070313,0.2929688s-0.5117188-0.0976563-0.7070313-0.2929688  c-0.390625-0.390625-0.390625-1.0234375,0-1.4140625l4.5849609-4.5849609c0.390625-0.390625,1.0234375-0.390625,1.4140625,0  s0.390625,1.0234375,0,1.4140625L13.6401367,19.7739258z M18.4483643,19.9969482  c-0.5861816,0.5862427-1.5365601,0.5862427-2.1227417,0c-0.5862427-0.5861816-0.5862427-1.5365601,0-2.1227417  c0.5861816-0.5862427,1.5365601-0.5862427,2.1227417,0C19.0345459,18.4603882,19.0345459,19.4107666,18.4483643,19.9969482z   M23,11.666626c-0.7363892,0.7363892-1.9302979,0.7363892-2.666687,0c-0.7363892-0.7363281-0.7363892-1.9302368,0-2.666626  S22.2636108,8.2636108,23,9S23.7363892,10.9302979,23,11.666626z"/></svg>