<?xml version="1.0" encoding="iso-8859-1"?>
<!-- Uploaded to: SVG Repo, www.svgrepo.com, Generator: SVG Repo Mixer Tools -->
<svg version="1.1" id="Layer_1" xmlns="http://www.w3.org/2000/svg" xmlns:xlink="http://www.w3.org/1999/xlink" 
	 viewBox="0 0 512 512" xml:space="preserve">
<rect x="189.211" y="114.906" style="fill:#AEADB3;" width="31.347" height="168.875"/>
<rect x="204.884" y="114.906" style="fill:#8B8892;" width="15.673" height="168.875"/>
<rect x="72.612" y="274.377" style="fill:#AEADB3;" width="54.857" height="31.347"/>
<rect x="369.496" y="445.801" style="fill:#8B8892;" width="31.347" height="66.194"/>
<rect x="288.486" y="207.849" style="fill:#AEADB3;" width="150.903" height="97.875"/>
<rect x="363.937" y="207.849" style="fill:#8B8892;" width="75.451" height="97.875"/>
<rect x="111.795" y="274.377" style="fill:#FF7953;" width="327.593" height="187.098"/>
<rect x="280.544" y="274.377" style="fill:#FF4F18;" width="158.844" height="187.098"/>
<path style="fill:#0082D2;" d="M332.927,143.129H76.846l0.073-15.746c0.157-34.053,13.531-66.047,37.668-90.09
	c23.468-23.374,54.428-36.54,87.447-37.25c0.428-0.01,0.857-0.021,1.285-0.031c0.01,0,0.01,0,0.01,0C203.758,0,204.186,0,204.625,0
	h0.261c0.522,0,1.055,0,1.578,0.021c0.094-0.01,0.188,0,0.282,0c0.094-0.01,0.178,0,0.261,0.01c0.878,0.01,1.745,0.031,2.612,0.063
	c0.146,0,0.282,0,0.418,0.021c0.982,0.031,1.964,0.084,2.947,0.146c0.857,0.052,1.714,0.104,2.56,0.178
	c0.397,0.031,0.794,0.063,1.191,0.104c0.554,0.052,1.108,0.104,1.661,0.167c0.502,0.042,1.003,0.094,1.505,0.167
	c0.554,0.063,1.108,0.125,1.651,0.199c0.418,0.052,0.836,0.104,1.254,0.167c0.627,0.084,1.243,0.178,1.86,0.272
	c0.502,0.073,0.993,0.157,1.484,0.251c0.491,0.073,0.972,0.157,1.452,0.24c0.408,0.063,0.805,0.136,1.202,0.219
	c0.805,0.146,1.599,0.303,2.382,0.481c0.136,0.01,0.261,0.042,0.387,0.073c0.731,0.157,1.463,0.313,2.194,0.481
	c0.387,0.084,0.773,0.178,1.149,0.272c0.669,0.157,1.327,0.324,1.996,0.491c0.355,0.094,0.711,0.188,1.066,0.282
	c0.564,0.146,1.118,0.303,1.682,0.46c0.512,0.146,1.034,0.293,1.546,0.449c0.481,0.136,0.951,0.282,1.431,0.428
	c0.408,0.125,0.815,0.251,1.223,0.387c0.606,0.188,1.202,0.376,1.797,0.585c0.418,0.136,0.825,0.272,1.233,0.428
	c0.543,0.178,1.076,0.366,1.609,0.564c0.502,0.178,1.014,0.366,1.515,0.564c0.376,0.125,0.752,0.272,1.128,0.418
	c0.711,0.272,1.421,0.564,2.132,0.857c0.23,0.084,0.449,0.178,0.679,0.272c0.888,0.366,1.776,0.742,2.654,1.139
	c0.94,0.418,1.881,0.846,2.821,1.285c0.742,0.345,1.484,0.711,2.215,1.076c1.118,0.554,2.236,1.118,3.333,1.714
	c0.69,0.366,1.369,0.731,2.048,1.118c0.408,0.219,0.805,0.449,1.202,0.679c0.021,0,0.042,0.01,0.052,0.031
	c0.878,0.491,1.745,1.003,2.602,1.526c1.839,1.108,3.647,2.257,5.433,3.469c0.763,0.512,1.515,1.034,2.267,1.567
	c0.836,0.596,1.661,1.191,2.487,1.808c4.942,3.678,9.665,7.732,14.106,12.162c24.137,24.043,37.522,56.037,37.679,90.09
	L332.927,143.129z"/>
<path style="fill:#AEADB3;" d="M249.868,459.797c0,16.927-13.719,30.657-30.657,30.657c-16.927,0-30.647-13.73-30.647-30.657
	c0-16.927,13.719-30.647,30.647-30.647C236.148,429.151,249.868,442.87,249.868,459.797z"/>
<path style="fill:#8B8892;" d="M249.868,459.797c0,16.927-13.719,30.657-30.657,30.657v-61.304
	C236.148,429.151,249.868,442.87,249.868,459.797z"/>
<path style="fill:#2B292C;" d="M271.403,459.285c-0.272-28.525-23.625-51.68-52.192-51.68c-28.599,0-51.983,23.238-52.182,51.743
	l-0.01,0.449c0,28.787,23.416,52.203,52.192,52.203c28.787,0,52.203-23.416,52.203-52.203L271.403,459.285z M219.211,480.653
	c-11.421,0-20.731-9.247-20.846-20.647l0.01-0.303c0.042-11.442,9.394-20.751,20.835-20.751c11.452,0,20.804,9.31,20.845,20.751
	v0.084c0.01,0.073,0.01,0.136,0.01,0.199C239.962,471.396,230.652,480.653,219.211,480.653z"/>
<path style="fill:#17171A;" d="M271.413,459.797c0,28.787-23.416,52.203-52.203,52.203v-31.347c11.442,0,20.751-9.258,20.856-20.668
	c0-0.063,0-0.125-0.01-0.199v-0.084c-0.042-11.442-9.394-20.751-20.845-20.751v-31.347c28.567,0,51.92,23.155,52.192,51.68
	L271.413,459.797z"/>
<path style="fill:#005C94;" d="M332.932,143.129H204.891V0c0.522,0,1.055,0,1.578,0.021c0.094-0.01,0.188,0,0.282,0
	c0.094-0.01,0.178,0,0.261,0.01c0.878,0.01,1.745,0.031,2.612,0.063c0.146,0,0.282,0,0.418,0.021
	c0.982,0.031,1.964,0.084,2.947,0.146c0.857,0.052,1.714,0.104,2.56,0.178c0.397,0.031,0.794,0.063,1.191,0.104
	c0.554,0.052,1.108,0.104,1.661,0.167c0.502,0.042,1.003,0.094,1.505,0.167c0.554,0.063,1.108,0.125,1.651,0.199
	c0.418,0.052,0.836,0.104,1.254,0.167c0.627,0.084,1.243,0.178,1.86,0.272c0.502,0.073,0.993,0.157,1.484,0.251
	c0.491,0.073,0.972,0.157,1.452,0.24c0.408,0.063,0.805,0.136,1.202,0.219c0.805,0.146,1.599,0.303,2.382,0.481
	c0.136,0.01,0.261,0.042,0.387,0.073c0.731,0.157,1.463,0.313,2.194,0.481c0.387,0.084,0.773,0.178,1.149,0.272
	c0.669,0.157,1.327,0.324,1.996,0.491c0.355,0.094,0.711,0.188,1.066,0.282c0.564,0.146,1.118,0.303,1.682,0.46
	c0.512,0.146,1.034,0.293,1.546,0.449c0.481,0.136,0.951,0.282,1.431,0.428c0.408,0.125,0.815,0.251,1.223,0.387
	c0.606,0.188,1.202,0.376,1.797,0.585c0.418,0.136,0.825,0.272,1.233,0.428c0.543,0.178,1.076,0.366,1.609,0.564
	c0.502,0.178,1.014,0.366,1.515,0.564c0.376,0.125,0.752,0.272,1.128,0.418c0.711,0.272,1.421,0.564,2.132,0.857
	c0.23,0.084,0.449,0.178,0.679,0.272c0.888,0.366,1.776,0.742,2.654,1.139c0.94,0.418,1.881,0.846,2.821,1.285
	c0.742,0.345,1.484,0.711,2.215,1.076c1.118,0.554,2.236,1.118,3.333,1.714c0.69,0.366,1.369,0.731,2.048,1.118
	c0.408,0.219,0.805,0.449,1.202,0.679c0.021,0,0.042,0.01,0.052,0.031c0.878,0.491,1.745,1.003,2.602,1.526
	c1.839,1.108,3.647,2.257,5.433,3.469c0.763,0.512,1.515,1.034,2.267,1.567c0.836,0.596,1.661,1.191,2.487,1.808
	c4.942,3.678,9.665,7.732,14.106,12.162c24.137,24.043,37.522,56.037,37.679,90.09L332.932,143.129z"/>
<path style="fill:#FFFFFF;" d="M257.82,143.129H151.963c0.763-89.035,38.922-131.374,49.287-141.237
	c0.93-0.888,1.64-1.505,2.069-1.881c0.01,0,0.01,0,0.01,0C203.758,0,204.186,0,204.625,0h0.261c0.522,0,1.055,0,1.578,0.021
	C211.866,4.66,256.984,46.247,257.82,143.129z"/>
<path style="fill:#C8C6CD;" d="M257.82,143.129h-52.934V0c0.522,0,1.055,0,1.578,0.021C211.866,4.66,256.984,46.247,257.82,143.129z
	"/>
</svg>