<?xml version="1.0" encoding="UTF-8" standalone="no"?>
<svg id="Layer_1" data-name="Layer 1" xmlns="http://www.w3.org/2000/svg" viewBox="0 0 247.08 156.72" width="396" height="251"><defs><style>.cls-1{fill:#d12053;}.cls-2{fill:#e2136e;}.cls-3{fill:#9e1638;}.cls-4{fill:#231f20;}.cls-5{fill:#808285;}</style></defs><title>bKash-Logo-English</title><polygon class="cls-1" points="170.62 54.14 177.65 85.74 223.65 62.45 170.62 54.14"/><polygon class="cls-2" points="183.69 6.93 170.63 54.15 223.65 62.45 183.69 6.93"/><polygon class="cls-1" points="127.52 0 182.35 6.55 169.39 53.51 127.52 0"/><polygon class="cls-3" points="127.07 9.24 133.19 9.24 150.32 31.15 127.07 9.24"/><polygon class="cls-1" points="225.12 62.15 209.17 40.09 234.96 35.46 225.12 62.15"/><polygon class="cls-2" points="222.45 68.63 224.07 63.7 183.84 84.14 222.45 68.63"/><polygon class="cls-3" points="169.5 55.39 177.89 93.14 152.96 113.41 169.5 55.39"/><polygon class="cls-2" points="232.44 46.69 247.08 46.45 236.5 35.67 232.44 46.69"/><path class="cls-2" d="M12.41,55.32c.71.06,1.43.19,2.19.19s1.38-.13,2.19-.19V78.79c2.31-3.93,5.22-6.52,9.5-6.52,7.74,0,11.06,7.66,11.06,14.7,0,8.43-4.5,16.5-12.39,16.5A8.66,8.66,0,0,1,17.19,99c-1.32,1.16-2.49,2.55-3.74,3.81h-1Zm4.28,34.52c0,6.84,2.9,11.61,7.67,11.61,6.19,0,8.18-8.32,8.18-14.22,0-6.85-2.26-12.24-7.62-12.3-6.26-.05-8.23,7.36-8.23,14.92" transform="translate(-12.41 -15.23)"/><path class="cls-4" d="M57.54,70.5l-4.66,6C57.26,82.9,61.8,89.17,66.2,95.65l4.44,7V103c-1.09-.07-2.08-.21-3-.21s-2.08.14-3.06.21c-1.21-2.24-2.41-4.31-3.78-6.34l-12-17.75c-.27-.28-.92-.5-.92-.21V103c-.88-.07-1.65-.21-2.41-.21s-1.64.14-2.41.21V55.32c.77.06,1.6.21,2.41.21s1.53-.15,2.41-.21V76.84c0,.42.82.14,1.36-.42A37.1,37.1,0,0,0,52.16,73l13.49-17.7c.71.06,1.42.21,2.19.21s1.36-.15,2.14-.21Z" transform="translate(-12.41 -15.23)"/><path class="cls-4" d="M93.83,97.63c0,2.48-.16,3.74,3.07,2.92v1.39a8.87,8.87,0,0,1-1.65.63c-2.85.57-5.21.06-5.65-3.67l-.49.55a10.17,10.17,0,0,1-8.12,4c-3.88,0-7.28-3.06-7.28-7.75,0-7.23,5-8.18,10.13-9.13,4.34-.82,5.82-1.2,5.82-4.25,0-4.7-2.3-7.42-6.41-7.42a6.85,6.85,0,0,0-6.52,4.37h-.6V75.75A14.2,14.2,0,0,1,85,72.27c5.75,0,8.88,3.48,8.88,10.65ZM89.45,87.16l-1.93.44c-3.73.82-9.32,1.45-9.32,7.24,0,4,2,6,5.36,6A6.83,6.83,0,0,0,88,98.4c.4-.46,1.5-1.54,1.5-2Z" transform="translate(-12.41 -15.23)"/><path class="cls-4" d="M103.6,96.79c1.3,2.49,3.72,4.72,6.3,4.72a5.67,5.67,0,0,0,5.38-5.78c0-8.56-12.95-3-12.95-14.08,0-6.08,4-9.37,8.93-9.37a11.57,11.57,0,0,1,6.2,1.64,32.79,32.79,0,0,0-1.3,4.5h-.5c-.72-2.09-2.63-4.19-4.66-4.19-2.74,0-5,1.85-5,5.28,0,8.11,12.95,3.79,12.95,13.94,0,6.79-5.26,10-10.1,10a12.73,12.73,0,0,1-6.84-2,34.42,34.42,0,0,0,1.15-4.65Z" transform="translate(-12.41 -15.23)"/><path class="cls-4" d="M126.33,55.32c.73.06,1.44.19,2.2.19s1.38-.13,2.2-.19V78.41c1.92-3.87,4.93-6.14,8.83-6.14,6.36,0,8.83,4.36,8.83,12.36V103c-.83-.07-1.47-.19-2.2-.19s-1.48.13-2.2.19V86.08c0-7-1.41-10.53-6.08-10.53-4.94,0-7.18,3.56-7.18,10.15V103c-.82-.07-1.47-.19-2.2-.19s-1.46.13-2.2.19Z" transform="translate(-12.41 -15.23)"/><path class="cls-5" d="M20.38,166.19l-.19-1.59h-.08a4.7,4.7,0,0,1-3.85,1.87,3.59,3.59,0,0,1-3.86-3.62c0-3,2.71-4.71,7.58-4.69v-.26A2.59,2.59,0,0,0,17.13,155a6.28,6.28,0,0,0-3.28.94l-.52-1.52a7.87,7.87,0,0,1,4.14-1.12c3.86,0,4.8,2.63,4.8,5.15v4.72a17.38,17.38,0,0,0,.21,3ZM20,159.76c-2.5-.05-5.34.39-5.34,2.84a2,2,0,0,0,2.16,2.19,3.14,3.14,0,0,0,3-2.11,2.46,2.46,0,0,0,.13-.73Z" transform="translate(-12.41 -15.23)"/><path class="cls-5" d="M31.55,148.87a22,22,0,0,1,4.14-.36c2.26,0,3.73.39,4.82,1.28a3.68,3.68,0,0,1,1.46,3.1,4.17,4.17,0,0,1-3,3.86v.05a4.53,4.53,0,0,1,3.62,4.4,4.73,4.73,0,0,1-1.48,3.52c-1.23,1.12-3.21,1.64-6.07,1.64a26.28,26.28,0,0,1-3.52-.21Zm2.27,7.19h2.05c2.4,0,3.81-1.25,3.81-2.94,0-2.06-1.56-2.87-3.86-2.87a9.44,9.44,0,0,0-2,.16Zm0,8.42a12.47,12.47,0,0,0,1.9.1c2.34,0,4.51-.86,4.51-3.41,0-2.4-2.06-3.39-4.54-3.39H33.82Z" transform="translate(-12.41 -15.23)"/><path class="cls-5" d="M45.67,148.87A23.68,23.68,0,0,1,50,148.5c2.42,0,4,.44,5.08,1.44a4.36,4.36,0,0,1,1.38,3.33,4.61,4.61,0,0,1-3.31,4.48v.08c1.35.47,2.16,1.72,2.57,3.55a27.8,27.8,0,0,0,1.36,4.82H54.76a22.92,22.92,0,0,1-1.17-4.2c-.52-2.42-1.46-3.33-3.51-3.41H47.93v7.61H45.67Zm2.26,8h2.32c2.42,0,4-1.33,4-3.33,0-2.27-1.64-3.26-4-3.29a9.21,9.21,0,0,0-2.24.21Z" transform="translate(-12.41 -15.23)"/><path class="cls-5" d="M62.65,160.67l-1.82,5.52H58.48l6-17.56h2.73l6,17.56H70.76l-1.88-5.52Zm5.76-1.77-1.72-5.06c-.4-1.14-.65-2.18-.91-3.2h-.05c-.26,1-.55,2.11-.89,3.18l-1.72,5.08Z" transform="translate(-12.41 -15.23)"/><path class="cls-5" d="M87.63,165.62a11.32,11.32,0,0,1-4.64.83c-5,0-8.67-3.12-8.67-8.88,0-5.5,3.72-9.22,9.17-9.22a9.42,9.42,0,0,1,4.16.78L87.11,151a8.33,8.33,0,0,0-3.54-.73c-4.12,0-6.85,2.63-6.85,7.24,0,4.3,2.47,7.06,6.75,7.06a9,9,0,0,0,3.69-.73Z" transform="translate(-12.41 -15.23)"/><path class="cls-5" d="M96,148.87a22,22,0,0,1,4.14-.36c2.26,0,3.73.39,4.82,1.28a3.68,3.68,0,0,1,1.46,3.1,4.17,4.17,0,0,1-3,3.86v.05a4.53,4.53,0,0,1,3.62,4.4,4.73,4.73,0,0,1-1.48,3.52c-1.23,1.12-3.21,1.64-6.07,1.64a26.29,26.29,0,0,1-3.52-.21Zm2.27,7.19h2.05c2.4,0,3.81-1.25,3.81-2.94,0-2.06-1.56-2.87-3.86-2.87a9.44,9.44,0,0,0-2,.16Zm0,8.42a12.47,12.47,0,0,0,1.9.1c2.34,0,4.51-.86,4.51-3.41,0-2.4-2.06-3.39-4.54-3.39H98.25Z" transform="translate(-12.41 -15.23)"/><path class="cls-5" d="M117,166.19l-.18-1.59h-.08a4.71,4.71,0,0,1-3.86,1.87,3.59,3.59,0,0,1-3.85-3.62c0-3,2.71-4.71,7.58-4.69v-.26a2.6,2.6,0,0,0-2.86-2.92,6.3,6.3,0,0,0-3.29.94l-.52-1.52a7.85,7.85,0,0,1,4.14-1.12c3.86,0,4.8,2.63,4.8,5.15v4.72a17.39,17.39,0,0,0,.21,3Zm-.34-6.44c-2.5-.05-5.34.39-5.34,2.84a2,2,0,0,0,2.16,2.19,3.13,3.13,0,0,0,3-2.11,2.33,2.33,0,0,0,.13-.73Z" transform="translate(-12.41 -15.23)"/><path class="cls-5" d="M122.58,157c0-1.3,0-2.37-.1-3.41h2l.13,2.08h0a4.64,4.64,0,0,1,4.17-2.37c1.75,0,4.45,1,4.45,5.37v7.53H131v-7.27c0-2-.75-3.73-2.92-3.73a3.27,3.27,0,0,0-3.08,2.34,3.48,3.48,0,0,0-.15,1.07v7.58h-2.29Z" transform="translate(-12.41 -15.23)"/><path class="cls-5" d="M139.29,159.37h.06c.31-.44.75-1,1.12-1.43l3.7-4.35h2.76l-4.87,5.19,5.54,7.42h-2.78l-4.35-6-1.17,1.3v4.74H137V147.7h2.26Z" transform="translate(-12.41 -15.23)"/><path class="cls-5" d="M169.27,165.73a8.5,8.5,0,0,1-3.62.73c-3.8,0-6.27-2.58-6.27-6.44a6.4,6.4,0,0,1,6.77-6.7,7.66,7.66,0,0,1,3.18.65l-.52,1.78a5.27,5.27,0,0,0-2.66-.6c-2.89,0-4.45,2.14-4.45,4.77,0,2.92,1.88,4.71,4.38,4.71a6.52,6.52,0,0,0,2.81-.63Z" transform="translate(-12.41 -15.23)"/><path class="cls-5" d="M183.21,159.78c0,4.66-3.23,6.7-6.28,6.7-3.41,0-6-2.5-6-6.49,0-4.22,2.76-6.69,6.25-6.69S183.21,155.93,183.21,159.78Zm-10,.13c0,2.76,1.59,4.84,3.83,4.84s3.83-2.06,3.83-4.9c0-2.14-1.07-4.84-3.78-4.84S173.2,157.52,173.2,159.92Z" transform="translate(-12.41 -15.23)"/><path class="cls-5" d="M186.1,157c0-1.3,0-2.37-.1-3.41h2l.11,2h.08a4.34,4.34,0,0,1,4-2.32,3.74,3.74,0,0,1,3.57,2.53h0a5.34,5.34,0,0,1,1.41-1.64,4.3,4.3,0,0,1,2.79-.88c1.66,0,4.14,1.09,4.14,5.47v7.42h-2.24v-7.14c0-2.43-.89-3.89-2.73-3.89a3,3,0,0,0-2.71,2.08,4,4,0,0,0-.18,1.15v7.79H194v-7.55c0-2-.89-3.47-2.63-3.47a3.14,3.14,0,0,0-2.84,2.3,3.23,3.23,0,0,0-.18,1.12v7.61H186.1Z" transform="translate(-12.41 -15.23)"/><path class="cls-5" d="M207.81,157.7c0-1.62-.05-2.92-.1-4.11h2.06l.1,2.16h.05a5,5,0,0,1,4.48-2.45c3.05,0,5.34,2.58,5.34,6.41,0,4.54-2.76,6.77-5.73,6.77a4.41,4.41,0,0,1-3.88-2h-.06v6.85h-2.26Zm2.26,3.36a5.67,5.67,0,0,0,.1.94,3.55,3.55,0,0,0,3.44,2.69c2.42,0,3.83-2,3.83-4.87,0-2.53-1.33-4.69-3.76-4.69a4,4,0,0,0-3.62,3.77Z" transform="translate(-12.41 -15.23)"/><path class="cls-5" d="M229.62,166.19l-.19-1.59h-.07a4.7,4.7,0,0,1-3.85,1.87,3.59,3.59,0,0,1-3.86-3.62c0-3,2.71-4.71,7.58-4.69v-.26a2.6,2.6,0,0,0-2.87-2.92,6.27,6.27,0,0,0-3.28.94l-.52-1.52a7.83,7.83,0,0,1,4.14-1.12c3.85,0,4.79,2.63,4.79,5.15v4.72a17.86,17.86,0,0,0,.21,3Zm-.34-6.44c-2.5-.05-5.35.39-5.35,2.84a2,2,0,0,0,2.17,2.19,3.14,3.14,0,0,0,3-2.11,2.48,2.48,0,0,0,.13-.73Z" transform="translate(-12.41 -15.23)"/><path class="cls-5" d="M235.18,157c0-1.3,0-2.37-.1-3.41h2l.13,2.08h0a4.64,4.64,0,0,1,4.17-2.37c1.74,0,4.45,1,4.45,5.37v7.53h-2.29v-7.27c0-2-.76-3.73-2.92-3.73a3.26,3.26,0,0,0-3.07,2.34,3.34,3.34,0,0,0-.15,1.07v7.58h-2.3Z" transform="translate(-12.41 -15.23)"/><path class="cls-5" d="M250.14,153.59l2.76,7.45c.29.83.6,1.82.81,2.58h.06c.23-.76.49-1.72.8-2.63l2.5-7.4h2.42l-3.44,9c-1.64,4.32-2.76,6.54-4.32,7.89a6.27,6.27,0,0,1-2.81,1.48l-.57-1.93a6.07,6.07,0,0,0,2-1.12,7,7,0,0,0,1.93-2.55,1.82,1.82,0,0,0,.18-.55,2.15,2.15,0,0,0-.16-.6l-4.67-11.62Z" transform="translate(-12.41 -15.23)"/></svg>